<svg viewBox="0 0 12 12" width="168px" height="168px" xmlns="http://www.w3.org/2000/svg"><path fill-rule="evenodd" d="M 4,0 7,0 7,2 8,2 8,1 11,1 11,4 10,4 10,5 9,5 9,6 11,6 11,11 0,11 0,6 2,6 2,5 1,5 1,4 0,4 0,1 3,1 3,2 4,2z" fill="#13C9BA"/><path fill-rule="evenodd" d="M 5,1 6,1 6,3 5,3z" fill="#ffffff"/><path fill-rule="evenodd" d="M 1,2 2,2 2,3 1,3z" fill="#ffffff"/><path fill-rule="evenodd" d="M 9,2 10,2 10,3 9,3z" fill="#ffffff"/><path fill-rule="evenodd" d="M 2,3 3,3 3,4 2,4z" fill="#ffffff"/><path fill-rule="evenodd" d="M 8,3 9,3 9,4 8,4z" fill="#ffffff"/><path fill-rule="evenodd" d="M 3,4 5,4 5,6 4,6 4,5 3,5z" fill="#ffffff"/><path fill-rule="evenodd" d="M 6,4 8,4 8,5 7,5 7,6 6,6z" fill="#ffffff"/><path fill-rule="evenodd" d="M 3,6 4,6 4,7 3,7z" fill="#ffffff"/><path fill-rule="evenodd" d="M 5,6 6,6 6,8 8,8 8,10 6,10 6,9 5,9 5,10 3,10 3,8 5,8z" fill="#ffffff"/><path fill-rule="evenodd" d="M 7,6 8,6 8,7 7,7z" fill="#ffffff"/><path fill-rule="evenodd" d="M 1,7 2,7 2,10 1,10z" fill="#ffffff"/><path fill-rule="evenodd" d="M 9,7 10,7 10,10 9,10z" fill="#ffffff"/></svg>